<?xml version="1.0" standalone="no"?>
<!DOCTYPE svg PUBLIC "-//W3C//DTD SVG 20010904//EN"
 "http://www.w3.org/TR/2001/REC-SVG-20010904/DTD/svg10.dtd">
<svg version="1.0" xmlns="http://www.w3.org/2000/svg"
 width="400.000000pt" height="260.000000pt" viewBox="0 0 400.000000 260.000000"
 preserveAspectRatio="xMidYMid meet">
<metadata>
Created by potrace 1.10, written by Peter Selinger 2001-2011
</metadata>
<g transform="translate(0.000000,360.000000) scale(0.100000,-0.100000)"
fill="#000000" stroke="none">
<path d="M0 1800 l0 -1800 4500 0 4500 0 0 1800 0 1800 -4500 0 -4500 0 0
-1800z m7307 424 c1 -258 2 -475 3 -481 0 -9 17 -13 53 -13 l53 0 73 83 c41
45 129 141 197 212 67 72 142 151 166 176 l43 46 90 2 c50 1 101 3 115 4 34 3
39 -30 8 -51 -12 -9 -81 -77 -153 -151 -71 -75 -180 -188 -242 -251 -62 -63
-113 -122 -113 -131 0 -9 17 -34 38 -55 20 -22 55 -61 77 -88 22 -27 45 -55
52 -61 7 -7 49 -57 94 -111 45 -55 85 -101 88 -104 3 -3 31 -34 61 -70 30 -36
76 -86 102 -113 68 -69 61 -75 -80 -70 -130 5 -112 -3 -197 98 -43 51 -42 51
-190 225 -104 122 -156 185 -200 238 -26 31 -31 33 -83 30 l-55 -3 2 -292 2
-293 -105 0 -106 0 0 843 c0 464 2 846 5 848 2 3 48 4 102 4 l98 -1 2 -470z
m-5907 390 c30 -9 68 -22 83 -30 16 -8 34 -14 41 -14 16 0 110 -98 129 -135
47 -92 50 -112 50 -263 0 -117 -3 -155 -16 -178 -8 -16 -18 -36 -22 -44 -37
-90 -142 -160 -241 -160 -68 0 -50 -28 36 -56 83 -27 179 -137 180 -207 1 -12
7 -33 15 -47 8 -14 14 -41 15 -60 0 -19 5 -52 11 -73 5 -20 14 -70 19 -110 5
-39 16 -105 25 -146 10 -47 12 -77 6 -85 -6 -7 -41 -9 -112 -6 l-103 5 -13 85
c-7 47 -12 105 -13 130 0 25 -7 70 -15 100 -8 30 -15 69 -15 87 0 17 -4 34 -9
38 -5 3 -13 20 -16 38 -10 44 -66 110 -117 138 -40 21 -58 23 -288 29 -135 3
-249 4 -253 2 -5 -2 -7 -149 -6 -325 l2 -322 -104 0 -104 0 -3 805 c-1 443 0
810 2 815 2 6 140 9 392 8 322 -3 398 -6 444 -19z m2720 0 c118 -33 221 -103
251 -169 5 -11 13 -27 18 -35 40 -68 61 -179 61 -323 -1 -92 -21 -241 -37
-272 -6 -11 -18 -36 -28 -55 -42 -87 -129 -152 -260 -194 -41 -13 -99 -16
-325 -16 l-275 0 3 -275 4 -276 -106 3 -107 3 1 810 c0 446 0 812 0 815 0 3
168 4 372 2 300 -2 384 -5 428 -18z m-1415 -365 c34 -11 90 -42 124 -67 61
-46 130 -132 131 -162 0 -9 5 -21 11 -27 36 -36 68 -420 37 -439 -6 -4 -197
-6 -424 -5 -298 2 -414 -1 -419 -9 -4 -6 -2 -49 5 -95 11 -81 27 -125 60 -170
20 -27 95 -85 109 -85 7 0 24 -8 38 -17 23 -15 51 -18 193 -17 141 0 174 3
225 21 89 31 117 45 142 66 11 10 29 17 40 15 16 -3 18 -12 14 -73 -4 -87 -10
-98 -63 -123 -154 -70 -212 -82 -394 -82 -160 0 -211 8 -287 46 -16 8 -35 14
-43 14 -24 0 -159 142 -181 190 -50 111 -53 131 -53 394 0 201 3 260 16 305
59 202 190 318 384 341 105 13 265 3 335 -21z m2682 4 c21 -9 57 -25 80 -35
58 -26 128 -100 160 -167 36 -78 41 -145 44 -628 l2 -418 -98 -3 c-110 -3
-117 1 -105 55 14 61 21 197 12 212 -11 16 -32 6 -32 -15 0 -49 -110 -214
-143 -214 -6 0 -18 -6 -26 -13 -42 -34 -124 -49 -256 -45 -118 3 -135 6 -187
31 -55 27 -138 99 -138 120 0 6 -6 18 -14 26 -8 9 -19 54 -25 100 -13 98 -1
203 30 269 21 43 101 116 149 134 14 6 39 16 55 23 43 18 120 36 190 45 33 4
92 12 130 18 39 7 113 17 165 24 l95 13 -1 40 c-1 99 -57 205 -127 242 -79 42
-336 46 -424 7 -17 -8 -37 -14 -45 -14 -7 0 -22 -7 -32 -15 -11 -8 -26 -15
-33 -15 -14 0 -76 -40 -81 -52 -2 -5 -11 -8 -19 -8 -14 0 -15 11 -10 70 6 74
22 119 47 130 8 4 33 15 55 24 22 10 53 24 68 32 16 8 38 14 50 15 12 0 38 7
57 14 55 21 358 20 407 -2z m1283 -3 c81 -32 137 -60 147 -72 6 -7 13 -40 16
-73 3 -33 9 -70 13 -82 5 -20 3 -23 -20 -23 -14 0 -26 4 -26 9 0 10 -12 18
-92 58 -99 49 -292 47 -396 -5 -122 -60 -167 -177 -167 -432 0 -158 12 -242
44 -310 24 -52 88 -117 140 -142 41 -21 60 -23 182 -22 149 0 197 13 286 76
48 35 67 30 59 -16 -3 -17 -8 -47 -11 -66 -3 -19 -8 -45 -10 -56 -5 -20 -43
-43 -168 -97 -54 -24 -339 -24 -394 -1 -150 65 -182 90 -246 189 -62 97 -74
152 -84 385 -8 213 19 405 64 461 7 8 13 19 13 23 0 13 62 88 98 119 36 33 98
67 122 67 8 1 26 7 40 15 34 20 338 16 390 -5z m1821 -991 c60 -20 78 -53 79
-139 0 -70 -2 -76 -32 -107 -30 -31 -36 -33 -98 -33 -56 0 -70 4 -88 23 -31
33 -46 114 -32 169 14 52 26 67 65 84 38 17 63 17 106 3z m-5768 -698 c23 -9
25 -16 29 -93 5 -93 2 -108 -19 -108 -12 0 -14 15 -12 80 2 43 0 82 -3 85 -4
4 -16 4 -27 0 -17 -5 -19 -9 -9 -25 10 -15 9 -23 -4 -37 -10 -12 -13 -25 -8
-38 14 -32 11 -55 -6 -62 -22 -8 -34 15 -32 63 0 22 -2 45 -5 50 -3 6 3 29 13
52 20 44 36 51 83 33z m475 -90 c3 -110 -1 -129 -24 -111 -11 10 -18 10 -26 2
-19 -19 -46 -14 -64 13 -27 41 -9 106 34 124 25 11 31 19 26 34 -7 21 12 39
36 34 12 -2 16 -22 18 -96z m166 93 c23 -9 20 -23 -9 -34 -24 -9 -35 -30 -15
-30 16 0 12 -27 -6 -34 -12 -5 -14 -15 -9 -48 3 -24 1 -50 -4 -58 -17 -25 -35
5 -34 52 1 23 -2 48 -6 56 -5 9 -3 30 6 51 20 49 39 60 77 45z m1371 -29 c0
-24 5 -31 25 -33 38 -6 60 -31 60 -70 0 -62 -60 -103 -102 -69 -12 9 -17 36
-21 104 -2 51 -2 95 1 98 16 15 37 -2 37 -30z m210 -64 c0 -96 -5 -118 -24
-107 -7 5 -11 45 -11 107 0 90 2 100 18 97 15 -3 17 -16 17 -97z m-4270 69 c0
-10 -12 -16 -32 -18 -20 -2 -37 -11 -43 -23 -11 -20 -7 -24 33 -31 26 -4 22
-22 -5 -26 -54 -8 -42 -48 15 -54 21 -2 33 -9 35 -20 3 -15 -5 -18 -53 -18
-49 0 -56 3 -63 23 -10 27 -8 159 2 176 12 18 111 10 111 -9z m1483 1 c25 -22
29 -56 7 -77 -8 -9 -15 -22 -15 -30 0 -8 7 -17 15 -20 16 -7 21 -64 5 -64 -5
0 -21 20 -36 45 -29 50 -44 50 -44 0 0 -32 -14 -54 -28 -41 -7 8 -11 152 -4
184 3 18 11 22 41 22 20 -1 46 -9 59 -19z m317 -33 c-4 -29 -11 -58 -17 -65
-6 -7 -5 -14 2 -18 5 -3 10 1 10 9 0 9 6 16 14 16 7 0 21 12 30 26 19 29 62
30 79 3 15 -24 0 -67 -23 -71 -23 -3 -23 -24 0 -21 8 1 18 -4 22 -10 22 -36
-53 -38 -76 -2 -20 30 -33 32 -41 5 -5 -15 -12 -19 -25 -15 -10 3 -21 1 -25
-5 -13 -22 -46 -9 -66 25 -21 35 -34 40 -76 29 -32 -9 -29 -20 8 -33 35 -12
30 -31 -9 -31 -64 1 -98 84 -52 130 36 36 83 21 105 -35 7 -18 9 -17 21 13 8
18 25 37 39 42 18 7 25 17 25 35 0 21 5 25 31 25 l31 0 -7 -52z m1325 27 c0
-22 -4 -25 -27 -23 -22 2 -28 -1 -28 -17 0 -13 8 -21 23 -23 43 -6 52 -80 13
-109 -24 -19 -66 -15 -86 7 -25 28 -8 45 30 30 22 -8 30 -8 37 2 13 21 10 28
-16 38 -34 12 -66 42 -66 59 0 30 42 61 82 61 34 0 38 -3 38 -25z m575 -63
c-1 -48 -4 -93 -9 -100 -17 -28 -26 5 -24 94 2 77 5 94 18 94 12 0 15 -15 15
-88z m503 -12 c-4 -134 -22 -135 -26 -2 -2 87 0 102 13 102 13 0 15 -15 13
-100z m142 86 c0 -8 -4 -17 -9 -21 -12 -7 -24 12 -16 25 9 15 25 12 25 -4z
m-867 -35 c32 -17 34 -27 7 -43 -26 -16 -25 -46 1 -74 23 -24 18 -44 -9 -44
-25 0 -46 38 -53 95 -6 47 4 90 19 83 4 -2 19 -10 35 -17z m941 4 c3 -8 12
-15 21 -15 21 0 19 -15 -6 -32 -18 -11 -20 -20 -14 -46 3 -18 11 -32 16 -32 5
0 9 -9 9 -20 0 -13 -7 -20 -18 -20 -28 0 -42 21 -42 64 0 47 -12 72 -30 61 -8
-5 -10 -21 -6 -49 3 -22 2 -47 -3 -55 -16 -25 -41 6 -41 50 0 34 5 42 40 64
22 14 40 30 40 35 0 16 27 12 34 -5z m-4195 -19 c10 -12 8 -17 -8 -25 -11 -6
-26 -11 -34 -11 -8 0 -17 -9 -20 -21 -4 -16 2 -25 29 -41 43 -25 45 -48 4 -48
-37 0 -70 31 -77 74 -4 28 0 37 27 59 35 30 62 34 79 13z m121 -8 c25 -27 27
-94 3 -120 -19 -21 -59 -24 -70 -4 -4 7 -15 15 -23 18 -24 8 -13 76 17 104 32
30 47 30 73 2z m799 8 c14 -17 -9 -39 -33 -30 -20 8 -30 -17 -22 -51 5 -18 12
-24 29 -22 16 1 23 -4 25 -20 3 -19 -1 -23 -26 -23 -36 0 -68 34 -74 78 -4 29
0 36 31 58 41 28 54 30 70 10z m1793 -10 c13 -18 9 -46 -6 -46 -8 0 -17 6 -19
13 -9 20 -27 -13 -27 -50 0 -39 -15 -50 -39 -29 -23 21 -38 20 -51 -4 -28 -52
-107 4 -96 69 3 18 13 39 23 47 24 18 69 18 77 -1 6 -16 36 -21 36 -6 0 11 61
29 80 23 8 -3 18 -10 22 -16z m-2371 -7 c12 -24 8 -124 -6 -124 -5 0 -11 20
-13 45 -1 25 -5 52 -8 60 -9 25 -34 -18 -34 -58 0 -26 -4 -33 -17 -30 -13 2
-18 13 -18 35 -1 40 -21 65 -35 43 -5 -8 -10 -32 -10 -52 0 -27 -4 -38 -15
-38 -12 0 -15 14 -15 63 0 35 3 67 6 70 4 4 40 6 81 6 62 -1 75 -4 84 -20z
m215 -18 c12 -38 5 -92 -14 -99 -8 -2 -12 12 -12 47 0 36 -4 51 -13 51 -14 0
-40 -39 -36 -56 4 -21 -2 -34 -15 -34 -17 0 -26 22 -20 47 5 21 -11 51 -23 40
-4 -4 -10 -28 -13 -53 -7 -63 -24 -55 -28 12 -5 85 -4 85 85 82 l78 -3 11 -34z
m124 13 c12 -31 -3 -66 -28 -62 -9 2 -18 -5 -20 -14 -3 -14 3 -18 22 -18 16 0
26 -6 26 -15 0 -21 -53 -19 -72 3 -26 28 -30 58 -14 96 13 30 20 36 46 36 24
0 33 -6 40 -26z m128 6 c1 -8 -7 -20 -19 -25 -25 -11 -35 -27 -44 -68 -8 -41
-29 -28 -36 24 -10 69 1 86 53 85 29 -1 44 -6 46 -16z m247 0 c27 -30 13 -70
-25 -70 -38 0 -40 -18 -2 -22 39 -4 35 -32 -5 -36 -64 -6 -101 80 -56 130 21
24 66 23 88 -2z m947 -35 c4 -27 5 -58 2 -68 -9 -30 -29 -13 -32 29 -5 65 -10
73 -32 44 -11 -14 -17 -32 -14 -41 5 -19 -23 -52 -37 -44 -5 4 -9 33 -9 65 0
56 1 59 28 63 15 2 40 4 57 3 28 -1 30 -4 37 -51z m130 38 c10 -9 18 -26 18
-39 0 -19 -7 -24 -35 -30 -41 -7 -42 -27 -1 -32 37 -5 28 -26 -12 -30 -22 -2
-34 2 -38 12 -3 9 -12 16 -19 16 -31 0 -33 58 -2 93 26 30 62 34 89 10z m836
-32 c6 -75 52 -65 52 12 0 26 4 37 15 37 11 0 15 -11 15 -39 0 -22 2 -45 5
-53 9 -22 -17 -46 -55 -53 -31 -5 -37 -2 -57 27 -20 31 -22 59 -7 106 8 28 29
4 32 -37z m202 35 c0 -8 -10 -16 -22 -18 -28 -4 -36 -28 -9 -28 32 0 46 -36
26 -66 -20 -30 -68 -30 -73 -1 -3 15 0 18 17 12 30 -9 27 16 -4 39 -28 21 -31
40 -12 61 16 19 77 20 77 1z m240 -51 c0 -58 -2 -65 -20 -65 -11 0 -29 -5 -39
-12 -17 -10 -23 -8 -40 13 -27 32 -26 54 5 95 21 27 33 34 60 34 l34 0 0 -65z
m217 23 c3 -24 9 -36 11 -28 3 8 18 28 34 43 21 22 35 28 60 25 l33 -3 3 -62
c3 -58 1 -63 -18 -63 -11 0 -29 -6 -40 -12 -16 -10 -22 -10 -32 3 -18 22 -43
30 -56 17 -18 -18 -32 1 -32 42 0 21 -5 42 -10 45 -12 7 -30 -36 -30 -71 0
-17 -6 -24 -19 -24 -28 0 -33 13 -25 69 7 53 11 57 81 60 31 1 33 -1 40 -41z
m655 15 c4 -38 24 -39 43 -3 10 20 22 30 33 28 21 -5 19 -43 -3 -64 -8 -9 -15
-24 -15 -35 0 -40 -61 -115 -86 -105 -20 8 -17 39 6 54 22 13 28 66 9 77 -14
9 -30 54 -23 66 11 19 33 8 36 -18z m-4414 -25 c-3 -25 -33 -34 -57 -19 -23
15 -5 41 29 41 27 0 31 -3 28 -22z"/>
<path d="M774 2459 c-6 -11 -7 -630 0 -636 3 -3 121 -5 263 -4 l258 2 54 27
c55 27 87 62 122 129 30 56 30 268 0 333 -23 52 -61 92 -117 121 -34 18 -62
21 -234 25 -107 2 -228 6 -268 8 -40 2 -75 -1 -78 -5z"/>
<path d="M3529 2461 c0 -3 -1 -172 -1 -375 l-1 -370 204 2 c245 3 302 8 354
32 111 51 155 147 155 339 0 197 -39 284 -154 343 -34 18 -64 21 -210 24 -94
3 -210 6 -258 8 -49 2 -88 1 -89 -3z"/>
<path d="M2385 2102 c-140 -49 -193 -121 -216 -292 -6 -46 -13 -88 -15 -92
-11 -17 37 -20 339 -20 l322 0 -3 97 c-2 84 -6 104 -33 160 -50 102 -137 152
-279 160 -44 3 -81 -2 -115 -13z"/>
<path d="M5397 1629 c-10 -6 -55 -15 -100 -19 -177 -19 -289 -44 -351 -77 -81
-44 -112 -139 -80 -245 34 -115 136 -159 311 -136 62 8 88 17 128 44 69 47 76
53 110 99 56 74 65 105 65 230 l0 115 -32 0 c-18 0 -41 -5 -51 -11z"/>
<path d="M3111 448 c-5 -14 -5 -31 2 -42 9 -19 10 -19 28 3 14 17 16 27 9 42
-14 25 -29 24 -39 -3z"/>
<path d="M4746 455 c-17 -18 -20 -43 -8 -62 14 -22 54 14 50 45 -4 31 -20 38
-42 17z"/>
<path d="M2094 505 c-8 -19 3 -35 25 -35 25 0 32 10 20 31 -12 23 -37 25 -45
4z"/>
<path d="M2386 446 c-7 -30 2 -56 19 -56 15 0 30 54 20 70 -11 18 -33 11 -39
-14z"/>
<path d="M2540 456 c0 -8 4 -17 9 -20 10 -7 23 19 14 28 -11 11 -23 6 -23 -8z"/>
<path d="M2250 450 c0 -5 7 -10 15 -10 8 0 15 5 15 10 0 6 -7 10 -15 10 -8 0
-15 -4 -15 -10z"/>
<path d="M972 458 c-17 -17 -15 -43 4 -59 13 -10 17 -10 25 2 12 18 7 61 -6
66 -6 2 -16 -2 -23 -9z"/>
<path d="M3417 463 c-10 -9 -8 -46 3 -63 8 -13 13 -12 32 7 21 22 21 23 3 43
-19 21 -28 24 -38 13z"/>
<path d="M1527 463 c-3 -5 -2 -15 2 -22 7 -10 10 -10 16 -1 4 6 3 16 -3 22 -5
5 -12 6 -15 1z"/>
<path d="M2970 450 c0 -5 9 -10 20 -10 11 0 20 5 20 10 0 6 -9 10 -20 10 -11
0 -20 -4 -20 -10z"/>
<path d="M4242 450 c-18 -29 -15 -42 11 -38 16 2 22 10 22 27 0 31 -17 37 -33
11z"/>
<path d="M4596 451 c-18 -20 -16 -51 3 -51 16 0 42 32 39 48 -5 24 -22 25 -42
3z"/>
</g>
</svg>
