<?xml version="1.0" standalone="no"?>
<!DOCTYPE svg PUBLIC "-//W3C//DTD SVG 20010904//EN"
 "http://www.w3.org/TR/2001/REC-SVG-20010904/DTD/svg10.dtd">
<svg version="1.0" xmlns="http://www.w3.org/2000/svg"
 width="772.000000pt" height="309.000000pt" viewBox="0 0 772.000000 309.000000"
 preserveAspectRatio="xMidYMid meet">

<g transform="translate(0.000000,309.000000) scale(0.100000,-0.100000)"
fill="#000000" stroke="none">
<path d="M6102 1593 l3 -728 88 -3 87 -3 0 251 0 250 50 0 49 0 213 -250 212
-250 98 0 c58 0 98 4 98 10 0 5 -106 135 -235 287 -129 153 -235 280 -235 283
0 3 101 112 225 244 124 131 225 242 225 247 0 5 -44 9 -97 9 l-97 0 -55 -59
c-31 -33 -123 -132 -206 -220 l-150 -161 -47 0 -48 0 0 410 0 410 -90 0 -90 0
2 -727z"/>
<path d="M500 1566 l0 -706 85 0 85 0 0 280 0 280 208 0 c180 0 212 -3 248
-19 84 -38 124 -112 149 -271 8 -58 21 -141 28 -185 l12 -80 93 -3 93 -3 -6
48 c-26 179 -66 387 -84 435 -30 77 -83 133 -153 162 l-58 23 54 12 c156 35
240 176 223 375 -16 185 -88 281 -247 332 -46 14 -108 18 -392 22 l-338 4 0
-706z m596 543 c80 -14 134 -47 164 -101 23 -39 25 -53 25 -164 0 -116 -1
-122 -30 -170 -23 -37 -44 -56 -84 -76 l-55 -28 -223 0 -223 0 0 268 c0 148 3
272 7 275 11 11 354 8 419 -4z"/>
<path d="M2860 1565 l0 -706 88 3 87 3 3 233 2 232 203 0 c140 0 224 5 272 15
193 41 282 143 307 352 32 277 -47 468 -220 533 -85 32 -173 39 -469 40 l-273
0 0 -705z m633 536 c21 -7 56 -28 77 -47 57 -52 74 -112 74 -259 0 -102 -4
-127 -23 -170 -55 -123 -102 -140 -381 -140 l-205 0 -3 305 c-1 168 0 311 3
318 4 11 44 13 213 9 120 -2 223 -9 245 -16z"/>
<path d="M1990 1946 c-143 -40 -242 -145 -278 -296 -30 -126 -23 -438 13 -540
39 -113 129 -198 255 -241 55 -19 86 -23 200 -23 147 0 219 14 315 60 31 14
59 33 64 42 4 9 11 45 14 79 l7 62 -66 -30 c-104 -47 -177 -62 -304 -63 -106
-1 -120 1 -175 27 -33 15 -68 36 -79 45 -49 44 -86 141 -86 227 l0 35 359 0
359 0 7 75 c4 41 4 110 0 153 -19 214 -116 340 -300 388 -62 17 -244 17 -305
0z m258 -141 c60 -18 115 -62 142 -114 20 -41 40 -135 40 -193 l0 -38 -281 0
-282 0 6 79 c10 146 72 237 187 272 43 13 134 10 188 -6z"/>
<path d="M4294 1946 c-54 -13 -190 -64 -221 -84 -12 -8 -31 -152 -20 -152 3 0
27 11 54 24 115 58 170 70 308 71 140 0 181 -11 232 -67 29 -31 53 -100 53
-154 0 -50 28 -41 -236 -79 -236 -35 -329 -68 -397 -144 -79 -88 -87 -288 -15
-396 93 -140 381 -167 534 -50 38 29 80 90 96 139 23 67 29 50 26 -69 l-3
-120 85 0 85 0 3 345 c3 380 -4 472 -44 561 -32 71 -76 112 -164 152 -59 27
-76 30 -190 33 -82 3 -146 -1 -186 -10z m406 -643 c0 -125 -16 -169 -82 -228
-68 -62 -119 -79 -228 -80 -83 0 -100 3 -134 24 -91 57 -104 224 -22 289 42
33 109 50 286 76 91 13 168 24 173 25 4 0 7 -47 7 -106z"/>
<path d="M5415 1946 c-160 -39 -257 -147 -296 -328 -7 -30 -9 -129 -7 -251 4
-175 8 -210 27 -262 26 -72 82 -149 136 -187 91 -64 254 -92 390 -69 90 16
192 63 204 93 11 30 22 140 13 136 -127 -68 -235 -94 -337 -83 -112 13 -180
57 -222 143 -28 57 -28 58 -28 267 0 208 0 210 27 260 36 68 74 101 144 126
49 18 75 20 157 17 91 -5 105 -8 178 -45 l78 -40 -5 46 c-13 114 -11 111 -70
138 -31 14 -79 31 -107 39 -63 17 -214 17 -282 0z"/>
<path d="M7180 1062 c-36 -37 -46 -88 -29 -144 25 -78 127 -101 185 -43 20 21
24 34 24 90 0 60 -3 69 -29 96 -24 24 -38 29 -76 29 -38 0 -52 -5 -75 -28z"/>
<path d="M2304 482 c-6 -4 -15 -18 -19 -32 -4 -14 -13 -28 -19 -32 -8 -6 -7
-8 2 -8 8 0 12 -16 12 -45 0 -26 5 -45 11 -45 8 0 9 14 5 44 -6 38 -4 45 11
49 17 4 17 5 1 6 -21 1 -21 2 -8 36 6 16 14 23 22 19 7 -4 8 -3 4 4 -8 14 -8
14 -22 4z"/>
<path d="M2863 483 c-7 -3 -13 -17 -13 -33 0 -19 -6 -30 -17 -33 -16 -4 -16
-5 -1 -6 13 -1 18 -13 21 -48 l3 -48 2 47 c2 35 6 48 20 51 16 4 16 5 -1 6
-14 1 -18 8 -15 29 2 19 8 26 21 24 9 -2 17 -1 17 1 0 8 -25 14 -37 10z"/>
<path d="M2110 451 c0 -20 -6 -31 -17 -34 -16 -4 -16 -5 1 -6 15 -1 18 -7 13
-34 -3 -19 -1 -40 4 -48 5 -9 9 16 9 69 0 45 -2 82 -5 82 -3 0 -5 -13 -5 -29z"/>
<path d="M2730 451 c0 -20 -6 -31 -17 -34 -16 -4 -16 -5 1 -6 15 -1 18 -7 13
-34 -3 -19 -1 -40 4 -48 5 -9 9 16 9 69 0 45 -2 82 -5 82 -3 0 -5 -13 -5 -29z"/>
<path d="M4053 405 c0 -44 2 -66 4 -50 9 59 54 76 71 28 6 -16 11 -22 11 -15
1 7 -4 22 -10 34 -8 15 -17 19 -39 14 -27 -5 -29 -3 -33 32 -2 20 -4 1 -4 -43z"/>
<path d="M4243 400 c0 -47 2 -66 4 -42 2 23 2 61 0 85 -2 23 -4 4 -4 -43z"/>
<path d="M500 395 l0 -75 43 2 42 1 -37 4 -38 4 0 64 0 64 38 4 37 4 -42 1
-43 2 0 -75z"/>
<path d="M1780 395 c0 -43 4 -75 10 -75 6 0 10 16 10 35 0 24 5 35 15 35 8 0
15 -3 15 -7 0 -5 12 -21 26 -38 14 -16 22 -23 18 -15 -4 8 -14 23 -22 33 -13
15 -13 19 1 35 34 37 14 72 -40 72 l-33 0 0 -75z m75 35 c0 -20 -6 -26 -27
-28 -25 -3 -28 0 -28 28 0 28 3 31 28 28 21 -2 27 -8 27 -28z"/>
<path d="M3197 463 c-4 -3 -7 -17 -7 -30 0 -17 9 -27 35 -37 60 -25 36 -78
-27 -62 l-23 6 23 -12 c31 -16 72 3 72 35 0 17 -10 28 -36 40 -45 22 -44 52 3
52 17 0 29 3 26 7 -5 10 -57 10 -66 1z"/>
<path d="M4175 460 c3 -5 8 -10 11 -10 2 0 4 5 4 10 0 6 -5 10 -11 10 -5 0 -7
-4 -4 -10z"/>
<path d="M4290 460 c0 -5 5 -10 10 -10 6 0 10 5 10 10 0 6 -4 10 -10 10 -5 0
-10 -4 -10 -10z"/>
<path d="M3551 438 c0 -9 -9 -19 -18 -21 -16 -4 -16 -5 -1 -6 12 -1 18 -12 20
-43 2 -23 8 -43 16 -44 7 -1 8 0 2 3 -5 2 -10 22 -10 43 0 28 5 40 18 43 15 4
15 5 0 6 -9 0 -19 9 -21 19 -4 15 -5 15 -6 0z"/>
<path d="M4361 438 c0 -9 -7 -19 -13 -21 -10 -4 -10 -6 0 -6 7 -1 12 -16 12
-41 0 -42 21 -63 42 -42 8 8 5 9 -11 5 -19 -5 -21 -1 -21 35 0 30 4 42 18 45
15 4 15 5 0 6 -9 0 -19 9 -21 19 -4 15 -5 15 -6 0z"/>
<path d="M1031 421 c-7 -5 -30 -7 -52 -5 l-39 3 2 -52 1 -52 6 45 c5 37 10 46
29 48 20 3 22 -1 23 -45 1 -26 3 -37 6 -23 9 60 14 70 33 70 15 0 20 -9 23
-47 l3 -48 2 51 c2 53 -11 71 -37 55z"/>
<path d="M2443 415 c-16 -12 -22 -12 -26 -2 -3 6 -5 -13 -5 -43 0 -52 1 -53 8
-17 8 45 21 60 46 55 14 -2 21 -15 25 -48 l6 -45 1 42 c1 26 -4 47 -14 57 -19
19 -15 19 -41 1z"/>
<path d="M3445 417 c-21 -16 -13 -34 21 -47 30 -12 31 -28 2 -40 -13 -5 -18
-9 -11 -9 49 -3 59 42 11 58 -30 11 -31 12 -13 31 21 23 17 26 -10 7z"/>
<path d="M3952 414 c-15 -10 -22 -25 -22 -49 0 -39 12 -51 37 -35 17 10 16 10
-2 8 -31 -5 -34 50 -3 74 28 22 21 24 -10 2z"/>
<path d="M716 404 c-9 -23 -7 -62 2 -68 5 -3 6 8 4 25 -2 16 1 36 8 44 7 9 8
15 2 15 -5 0 -13 -7 -16 -16z"/>
<path d="M820 399 c-6 -11 -9 -25 -6 -32 2 -7 5 -5 5 5 1 9 8 24 17 32 8 9 11
16 5 16 -6 0 -15 -9 -21 -21z"/>
<path d="M878 410 c17 -19 15 -55 -4 -71 -13 -10 -19 -10 -37 0 -21 13 -21 12
-5 -5 14 -15 21 -16 43 -6 30 14 35 62 8 83 -15 11 -16 11 -5 -1z"/>
<path d="M1120 365 l4 -50 6 45 c4 37 9 46 28 48 20 3 22 -1 24 -45 l1 -48 6
45 c5 36 10 46 28 48 19 3 22 -2 26 -45 l4 -48 -1 50 -1 50 -65 0 -65 1 5 -51z"/>
<path d="M1296 404 c-9 -23 -7 -62 2 -68 5 -3 6 8 4 25 -2 16 1 36 8 44 7 9 8
15 2 15 -5 0 -13 -7 -16 -16z"/>
<path d="M1352 400 c7 -10 14 -18 15 -16 6 6 -9 36 -18 36 -5 0 -4 -9 3 -20z"/>
<path d="M1423 413 c-8 -3 -12 -22 -12 -51 1 -26 3 -36 6 -22 10 65 14 72 33
67 11 -3 20 -1 20 4 0 10 -26 11 -47 2z"/>
<path d="M1512 408 c-14 -14 -16 -64 -4 -72 5 -3 6 8 4 25 -2 16 1 36 8 44 15
18 9 20 -8 3z"/>
<path d="M1609 394 c-12 -34 11 -75 44 -73 20 1 20 2 2 6 -32 7 -44 30 -35 64
11 36 3 38 -11 3z"/>
<path d="M1667 401 c3 -12 9 -21 14 -21 14 0 11 16 -5 29 -12 10 -13 8 -9 -8z"/>
<path d="M1919 394 c-12 -34 11 -75 44 -73 20 1 20 2 2 6 -32 7 -44 30 -35 64
11 36 3 38 -11 3z"/>
<path d="M1981 403 c7 -12 15 -20 18 -17 3 2 -3 12 -13 22 -17 16 -18 16 -5
-5z"/>
<path d="M2040 399 c-6 -11 -10 -29 -8 -41 4 -27 33 -47 48 -32 8 8 4 10 -12
10 -18 -1 -24 5 -26 25 -2 15 4 34 13 43 9 9 12 16 6 16 -6 0 -15 -9 -21 -21z"/>
<path d="M2161 398 c-4 -12 -6 -30 -3 -40 9 -35 17 -26 17 18 0 50 -2 53 -14
22z"/>
<path d="M2221 403 c7 -12 15 -20 18 -17 3 2 -3 12 -13 22 -17 16 -18 16 -5
-5z"/>
<path d="M2363 370 c0 -30 2 -43 4 -27 2 15 2 39 0 55 -2 15 -4 2 -4 -28z"/>
<path d="M2540 401 c-11 -21 -14 -48 -4 -38 3 3 6 9 6 14 0 4 4 16 9 26 5 9 7
17 5 17 -3 0 -10 -9 -16 -19z"/>
<path d="M2597 400 c3 -11 9 -20 15 -20 5 0 4 9 -2 20 -6 11 -12 20 -14 20 -2
0 -2 -9 1 -20z"/>
<path d="M2661 406 c-27 -33 10 -109 39 -80 8 8 4 10 -12 10 -18 -1 -24 5 -26
25 -2 15 4 34 13 43 9 9 12 16 7 16 -5 0 -15 -6 -21 -14z"/>
<path d="M2922 408 c-25 -25 -3 -88 30 -88 6 0 0 9 -13 19 -22 17 -23 22 -12
50 13 35 12 36 -5 19z"/>
<path d="M2973 409 c20 -12 23 -49 5 -69 -11 -12 -10 -12 5 -1 29 22 16 82
-17 81 -6 0 -3 -5 7 -11z"/>
<path d="M3034 407 c3 -10 7 -35 8 -55 1 -36 1 -36 7 8 5 39 9 45 29 44 12 0
22 3 22 8 0 12 -38 10 -46 -3 -4 -8 -9 -7 -16 2 -7 11 -8 9 -4 -4z"/>
<path d="M3312 385 c-2 -39 11 -65 32 -65 5 0 2 6 -7 13 -9 6 -18 30 -20 52
l-4 40 -1 -40z"/>
<path d="M3380 389 c0 -19 -6 -41 -12 -48 -11 -11 -10 -12 1 -6 8 4 17 2 22
-6 5 -9 6 6 3 36 -8 60 -14 71 -14 24z"/>
<path d="M3630 401 c-15 -29 -12 -57 8 -72 14 -11 15 -11 5 1 -18 19 -16 55 3
74 8 9 11 16 5 16 -6 0 -15 -9 -21 -19z"/>
<path d="M3689 393 c-3 -18 -2 -33 3 -33 4 0 9 -10 9 -22 1 -14 3 -17 5 -8 3
9 1 33 -4 55 l-8 40 -5 -32z"/>
<path d="M3753 370 c0 -30 2 -43 4 -27 2 15 2 39 0 55 -2 15 -4 2 -4 -28z"/>
<path d="M3807 374 c7 -62 13 -70 13 -16 0 28 5 44 18 51 9 6 12 11 5 11 -6 0
-15 -5 -19 -11 -5 -8 -9 -8 -14 1 -4 7 -5 -9 -3 -36z"/>
<path d="M3867 409 c6 -8 13 -32 16 -54 4 -34 4 -32 3 9 -1 34 -6 51 -16 54
-12 4 -13 2 -3 -9z"/>
<path d="M3997 378 c5 -58 13 -61 13 -5 0 26 -4 47 -8 47 -5 0 -7 -19 -5 -42z"/>
<path d="M4183 370 c0 -30 2 -43 4 -27 2 15 2 39 0 55 -2 15 -4 2 -4 -28z"/>
<path d="M4303 370 c0 -30 2 -43 4 -27 2 15 2 39 0 55 -2 15 -4 2 -4 -28z"/>
<path d="M4436 407 c3 -10 9 -15 12 -12 3 3 0 11 -7 18 -10 9 -11 8 -5 -6z"/>
<path d="M4500 394 c-6 -16 -13 -36 -16 -44 -4 -12 -9 -9 -20 10 -10 16 -13
18 -9 5 18 -50 18 -58 0 -71 -11 -8 -14 -14 -8 -14 6 0 15 6 21 13 14 16 53
120 47 125 -2 3 -9 -8 -15 -24z"/>
<path d="M628 383 c12 -2 30 -2 40 0 9 3 -1 5 -23 4 -22 0 -30 -2 -17 -4z"/>
<path d="M2549 338 c7 -10 23 -17 35 -17 20 1 20 2 1 6 -11 3 -27 10 -35 17
-13 10 -13 9 -1 -6z"/>
<path d="M755 330 c-16 -7 -17 -9 -3 -9 9 -1 20 4 23 9 7 11 7 11 -20 0z"/>
<path d="M1340 330 c-23 -7 -23 -8 -3 -9 12 -1 25 4 28 9 3 6 5 10 3 9 -2 -1
-14 -5 -28 -9z"/>
<path d="M1545 330 c-16 -7 -17 -9 -3 -9 9 -1 20 4 23 9 7 11 7 11 -20 0z"/>
<path d="M2198 323 c7 -3 16 -2 19 1 4 3 -2 6 -13 5 -11 0 -14 -3 -6 -6z"/>
<path d="M4078 323 c7 -3 16 -2 19 1 4 3 -2 6 -13 5 -11 0 -14 -3 -6 -6z"/>
</g>
</svg>
